<svg width="313" height="359" viewBox="0 0 313 359" fill="none" xmlns="http://www.w3.org/2000/svg">
<path opacity="0.3" d="M156.5 42.5C217.804 42.5 267.5 92.1964 267.5 153.5L267.5 357.5L45.4999 357.5L45.5 153.5C45.5 92.1964 95.1964 42.5 156.5 42.5Z" stroke="white" stroke-width="3"/>
<path opacity="0.3" d="M156.5 1.50003C242.104 1.50004 311.5 70.8959 311.5 156.5L311.5 357.5L1.49994 357.5L1.49997 156.5C1.49999 70.8959 70.8959 1.50003 156.5 1.50003Z" stroke="white" stroke-width="3"/>
<path opacity="0.3" d="M159.042 21.0254C160.736 21.0566 162.422 21.1191 164.101 21.2119L164.019 22.7071C165.694 22.7997 167.361 22.9236 169.02 23.0772L169.157 21.585C170.846 21.7414 172.526 21.9286 174.196 22.1465L174.004 23.6328C175.665 23.8496 177.317 24.097 178.959 24.3741L179.207 22.8955C180.877 23.1772 182.535 23.4899 184.184 23.8321L183.88 25.2989C185.521 25.6395 187.15 26.0102 188.769 26.4102L189.128 24.9561C190.773 25.3627 192.405 25.7996 194.025 26.2657L193.612 27.7051C195.221 28.1678 196.817 28.66 198.4 29.1807L198.868 27.7569C200.475 28.2855 202.069 28.8432 203.649 29.4297L203.128 30.835C204.697 31.4174 206.252 32.0282 207.793 32.667L208.367 31.2842C209.93 31.9323 211.478 32.6092 213.011 33.3135L212.387 34.6748C213.907 35.3733 215.412 36.0986 216.9 36.8516L217.576 35.5147C219.085 36.2778 220.577 37.0685 222.053 37.8858L221.328 39.1973C222.791 40.0074 224.237 40.8444 225.666 41.7071L226.439 40.4239C227.887 41.2981 229.318 42.1979 230.729 43.1241L229.907 44.378C231.305 45.2951 232.685 46.2378 234.046 47.2051L234.915 45.9825L234.915 45.9815C236.293 46.9606 237.651 47.9655 238.989 48.9942L238.076 50.1836C239.401 51.2019 240.707 52.2445 241.992 53.3106L242.948 52.1573C244.249 53.2361 245.529 54.339 246.788 55.4649L245.79 56.5821C247.036 57.696 248.261 58.8331 249.464 59.9922L250.503 58.9131C251.719 60.0852 252.914 61.2797 254.086 62.4961L253.008 63.5362C254.167 64.7393 255.304 65.9644 256.418 67.21L257.534 66.211C258.66 67.47 259.763 68.7501 260.842 70.0508L259.689 71.0079C260.756 72.2931 261.798 73.5988 262.816 74.9239L264.005 74.0098C265.034 75.3487 266.038 76.7073 267.018 78.085L267.019 78.085L265.796 78.9541C266.763 80.3149 267.705 81.695 268.622 83.0928L269.875 82.2696C270.801 83.6813 271.701 85.1118 272.575 86.5596L271.294 87.334C272.157 88.7626 272.993 90.2092 273.803 91.6719L275.113 90.9463C275.931 92.4219 276.721 93.9142 277.484 95.4229L276.148 96.0997C276.901 97.5884 277.628 99.0933 278.326 100.613L279.686 99.9883C280.39 101.521 281.067 103.069 281.715 104.632L280.333 105.207C280.972 106.748 281.583 108.303 282.165 109.872L283.569 109.35C284.156 110.93 284.714 112.524 285.242 114.131L283.819 114.6C284.34 116.183 284.832 117.78 285.295 119.389L286.733 118.974C287.199 120.594 287.636 122.227 288.043 123.871L286.59 124.231C286.99 125.85 287.361 127.479 287.701 129.12L289.167 128.815C289.509 130.464 289.822 132.123 290.103 133.792L288.627 134.041C288.904 135.683 289.15 137.335 289.367 138.996L290.853 138.803C291.07 140.473 291.258 142.153 291.414 143.842L289.923 143.981C290.076 145.639 290.2 147.306 290.293 148.981L291.788 148.898C291.881 150.577 291.942 152.263 291.974 153.957L290.477 153.984C290.492 154.821 290.5 155.66 290.5 156.5L290.5 159.031L292 159.031L292 164.094L290.5 164.094L290.5 169.156L292 169.156L292 174.219L290.5 174.219L290.5 179.281L292 179.281L292 184.344L290.5 184.344L290.5 189.406L292 189.406L292 194.469L290.5 194.469L290.5 199.531L292 199.531L292 204.594L290.5 204.594L290.5 209.656L292 209.656L292 214.719L290.5 214.719L290.5 219.781L292 219.781L292 224.844L290.5 224.844L290.5 229.906L292 229.906L292 234.969L290.5 234.969L290.5 240.031L292 240.031L292 245.094L290.5 245.094L290.5 250.156L292 250.156L292 255.219L290.5 255.219L290.5 260.281L292 260.281L292 265.344L290.5 265.344L290.5 270.406L292 270.406L292 275.469L290.5 275.469L290.5 280.531L292 280.531L292 285.594L290.5 285.594L290.5 290.656L292 290.656L292 295.719L290.5 295.719L290.5 300.781L292 300.781L292 305.844L290.5 305.844L290.5 310.906L292 310.906L292 315.969L290.5 315.969L290.5 321.031L292 321.031L292 326.094L290.5 326.094L290.5 331.156L292 331.156L292 336.219L290.5 336.219L290.5 341.281L292 341.281L292 346.344L290.5 346.344L290.5 351.406L292 351.406L292 356.469L290.5 356.469L290.5 357.5L289.491 357.5L289.491 359L284.473 359L284.473 357.5L279.454 357.5L279.454 359L274.435 359L274.435 357.5L269.417 357.5L269.417 359L264.398 359L264.398 357.5L259.38 357.5L259.38 359L254.361 359L254.361 357.5L249.343 357.5L249.343 359L244.324 359L244.324 357.5L239.306 357.5L239.306 359L234.287 359L234.287 357.5L229.268 357.5L229.268 359L224.25 359L224.25 357.5L219.231 357.5L219.231 359L214.213 359L214.213 357.5L209.194 357.5L209.194 359L204.176 359L204.176 357.5L199.157 357.5L199.157 359L194.139 359L194.139 357.5L189.12 357.5L189.12 359L184.102 359L184.102 357.5L179.083 357.5L179.083 359L174.064 359L174.064 357.5L169.046 357.5L169.046 359L164.027 359L164.027 357.5L159.009 357.5L159.009 359L153.991 359L153.991 357.5L148.973 357.5L148.973 359L143.954 359L143.954 357.5L138.935 357.5L138.935 359L133.917 359L133.917 357.5L128.898 357.5L128.898 359L123.88 359L123.88 357.5L118.861 357.5L118.861 359L113.843 359L113.843 357.5L108.824 357.5L108.824 359L103.806 359L103.806 357.5L98.7871 357.5L98.7871 359L93.7685 359L93.7685 357.5L88.7499 357.5L88.7499 359L83.7314 359L83.7314 357.5L78.7128 357.5L78.7128 359L73.6943 359L73.6943 357.5L68.6757 357.5L68.6757 359L63.6572 359L63.6572 357.5L58.6386 357.5L58.6386 359L53.6201 359L53.6201 357.5L48.6015 357.5L48.6015 359L43.5829 359L43.5829 357.5L38.5644 357.5L38.5644 359L33.5458 359L33.5458 357.5L28.5273 357.5L28.5273 359L23.5087 359L23.5087 357.5L22.4999 357.5L22.4999 356.469L20.9999 356.469L20.9999 351.406L22.4999 351.406L22.4999 346.344L20.9999 346.344L20.9999 341.281L22.4999 341.281L22.4999 336.219L20.9999 336.219L20.9999 331.156L22.4999 331.156L22.4999 326.094L20.9999 326.094L20.9999 321.031L22.4999 321.031L22.4999 315.969L20.9999 315.969L20.9999 310.906L22.4999 310.906L22.5 305.844L21 305.844L21 300.781L22.5 300.781L22.5 295.719L21 295.719L21 290.656L22.5 290.656L22.5 285.594L21 285.594L21 280.531L22.5 280.531L22.5 275.469L21 275.469L21 270.406L22.5 270.406L22.5 265.344L21 265.344L21 260.281L22.5 260.281L22.5 255.219L21 255.219L21 250.156L22.5 250.156L22.5 245.094L21 245.094L21 240.031L22.5 240.031L22.5 234.969L21 234.969L21 229.906L22.5 229.906L22.5 224.844L21 224.844L21 219.781L22.5 219.781L22.5 214.719L21 214.719L21 209.656L22.5 209.656L22.5 204.594L21 204.594L21 199.531L22.5 199.531L22.5 194.469L21 194.469L21 189.406L22.5 189.406L22.5 184.344L21 184.344L21 179.281L22.5 179.281L22.5 174.219L21 174.219L21 169.156L22.5 169.156L22.5 164.094L21 164.094L21 159.031L22.5 159.031L22.5 156.5C22.5 155.66 22.508 154.821 22.5234 153.984L21.0254 153.957C21.0565 152.263 21.1191 150.577 21.2119 148.898L22.707 148.981C22.7997 147.306 22.9235 145.639 23.0771 143.98L21.5849 143.842C21.7414 142.153 21.9286 140.473 22.1465 138.803L23.6328 138.996C23.8495 137.335 24.097 135.683 24.374 134.041L22.8955 133.792C23.1772 132.123 23.4898 130.464 23.832 128.815L25.2988 129.12C25.6394 127.479 26.0101 125.85 26.4101 124.231L24.956 123.871C25.3626 122.227 25.7996 120.594 26.2656 118.974L27.7051 119.388C28.1677 117.779 28.6599 116.183 29.1806 114.6L27.7568 114.131C28.2854 112.524 28.8432 110.93 29.4297 109.35L30.8349 109.872C31.4174 108.303 32.0281 106.748 32.667 105.207L31.2842 104.632C31.9323 103.069 32.6092 101.521 33.3135 99.9883L34.6748 100.613C35.3732 99.0933 36.0985 97.5883 36.8515 96.0996L35.5146 95.4229C36.2778 93.9142 37.0685 92.4219 37.8857 90.9463L39.1973 91.6719C40.0074 90.2091 40.8444 88.7626 41.707 87.334L40.4238 86.5596C41.298 85.1118 42.1978 83.6813 43.124 82.2695L44.3779 83.0928C45.295 81.6948 46.2377 80.315 47.2051 78.9541L45.9824 78.085L45.9814 78.084C46.9606 76.7065 47.9654 75.3484 48.9941 74.0098L50.1836 74.9238C51.2019 73.5988 52.2445 72.2931 53.3105 71.0078L52.1572 70.0508C53.2361 68.7501 54.3389 67.47 55.4648 66.2109L56.582 67.21C57.696 65.9643 58.833 64.7392 59.9922 63.5361L58.9131 62.4961C60.0851 61.2797 61.2797 60.0851 62.4961 58.9131L63.5361 59.9922C64.7392 58.833 65.9643 57.696 67.21 56.582L66.2109 55.4649C67.47 54.3389 68.7501 53.2361 70.0508 52.1572L71.0078 53.3106C72.2931 52.2445 73.5987 51.2019 74.9238 50.1836L74.0098 48.9941C75.3484 47.9654 76.7065 46.9606 78.084 45.9815L78.085 45.9824L78.9541 47.2041C80.3149 46.2369 81.695 45.295 83.0928 44.3779L82.2695 43.124C83.6813 42.1978 85.1118 41.2981 86.5596 40.4238L87.334 41.707C88.7626 40.8444 90.2091 40.0074 91.6719 39.1973L90.9463 37.8858C92.4219 37.0685 93.9142 36.2778 95.4228 35.5147L96.0996 36.8516C97.5883 36.0986 99.0933 35.3732 100.613 34.6748L99.9883 33.3135C101.521 32.6092 103.069 31.9323 104.632 31.2842L105.207 32.667C106.748 32.0281 108.303 31.4174 109.872 30.835L109.35 29.4297C110.93 28.8432 112.524 28.2855 114.131 27.7569L114.6 29.1807C116.183 28.6599 117.78 28.1678 119.389 27.7051L118.974 26.2656C120.594 25.7996 122.227 25.3627 123.871 24.9561L124.231 26.4102C125.85 26.0101 127.479 25.6395 129.12 25.2988L128.815 23.8321C130.464 23.4899 132.123 23.1772 133.792 22.8955L134.041 24.374C135.683 24.0971 137.335 23.8495 138.996 23.6328L138.803 22.1465C140.473 21.9286 142.153 21.7414 143.842 21.585L143.98 23.0772C145.639 22.9235 147.306 22.7997 148.981 22.7071L148.898 21.2119C150.577 21.1191 152.263 21.0566 153.957 21.0254L153.984 22.5235C154.821 22.5081 155.66 22.5 156.5 22.5C157.34 22.5 158.179 22.5081 159.016 22.5235L159.042 21.0254Z" stroke="white" stroke-width="3" stroke-dasharray="5 5"/>
</svg>
