<svg width="24" height="19" viewBox="0 0 24 19" fill="none" xmlns="http://www.w3.org/2000/svg">
<path d="M23.0391 4.21875H20.4141V2.8125C20.4141 2.03125 20.1406 1.36719 19.5938 0.820312C19.0469 0.273438 18.3828 0 17.6016 0H14.7891C14.5234 0 14.3008 0.0898438 14.1211 0.269531C13.9414 0.449219 13.8516 0.671875 13.8516 0.9375C13.8516 1.20312 13.9414 1.42578 14.1211 1.60547C14.3008 1.78516 14.5234 1.875 14.7891 1.875H17.6016C17.8672 1.875 18.0898 1.96484 18.2695 2.14453C18.4492 2.32422 18.5391 2.54688 18.5391 2.8125V4.21875H5.41406V2.8125C5.41406 2.54688 5.50391 2.32422 5.68359 2.14453C5.86328 1.96484 6.08594 1.875 6.35156 1.875H9.16406C9.42969 1.875 9.65234 1.78516 9.83203 1.60547C10.0117 1.42578 10.1016 1.20312 10.1016 0.9375C10.1016 0.671875 10.0117 0.449219 9.83203 0.269531C9.65234 0.0898438 9.42969 0 9.16406 0H6.35156C5.57031 0 4.90625 0.273438 4.35938 0.820312C3.8125 1.36719 3.53906 2.03125 3.53906 2.8125V4.21875H0.914062C0.617188 4.21875 0.375 4.33594 0.1875 4.57031C0 4.80469 -0.0625 5.07031 0 5.36719L2.85938 17.8359C2.90625 18.0547 3.01562 18.2305 3.1875 18.3633C3.35938 18.4961 3.55469 18.5625 3.77344 18.5625H20.1797C20.3984 18.5625 20.5938 18.4961 20.7656 18.3633C20.9375 18.2305 21.0469 18.0547 21.0938 17.8359L23.9531 5.36719C24.0156 5.07031 23.9531 4.80469 23.7656 4.57031C23.5781 4.33594 23.3359 4.21875 23.0391 4.21875ZM19.4297 16.6875H4.52344L2.08594 6.09375H21.8672L19.4297 16.6875ZM10.5703 9.04688V13.7344C10.5703 14 10.4805 14.2227 10.3008 14.4023C10.1211 14.582 9.89844 14.6719 9.63281 14.6719C9.36719 14.6719 9.14453 14.582 8.96484 14.4023C8.78516 14.2227 8.69531 14 8.69531 13.7344V9.04688C8.69531 8.78125 8.78516 8.55859 8.96484 8.37891C9.14453 8.19922 9.36719 8.10938 9.63281 8.10938C9.89844 8.10938 10.1211 8.19922 10.3008 8.37891C10.4805 8.55859 10.5703 8.78125 10.5703 9.04688ZM15.2578 9.04688V13.7344C15.2578 14 15.168 14.2227 14.9883 14.4023C14.8086 14.582 14.5859 14.6719 14.3203 14.6719C14.0547 14.6719 13.832 14.582 13.6523 14.4023C13.4727 14.2227 13.3828 14 13.3828 13.7344V9.04688C13.3828 8.78125 13.4727 8.55859 13.6523 8.37891C13.832 8.19922 14.0547 8.10938 14.3203 8.10938C14.5859 8.10938 14.8086 8.19922 14.9883 8.37891C15.168 8.55859 15.2578 8.78125 15.2578 9.04688Z" fill="#1B2336"/>
</svg>
