<svg width="80" height="75" viewBox="0 0 80 75" fill="none" xmlns="http://www.w3.org/2000/svg">
<path d="M23.4667 11.7333C23.2889 11.3777 22.9778 11.1555 22.5333 11.0666C22.0889 10.9777 21.6889 11.0222 21.3333 11.2C20.9778 11.5555 20.7111 11.9111 20.5333 12.2666C20.3556 12.6222 20.4 13.0222 20.6667 13.4666C20.9333 13.9111 21.2889 14.1333 21.7333 14.1333C22.1778 14.1333 22.5778 14.0444 22.9333 13.8666C23.2889 13.6888 23.5111 13.3777 23.6 12.9333C23.6889 12.4888 23.6444 12.0888 23.4667 11.7333ZM79.2 24L40.8 0.266624C40.2667 -0.0889359 39.7333 -0.0889359 39.2 0.266624L26.4 8.26662C25.8667 8.4444 25.5556 8.75551 25.4667 9.19996C25.3778 9.6444 25.4667 10.0444 25.7333 10.4C26 10.7555 26.3556 10.9777 26.8 11.0666C27.2444 11.1555 27.6444 11.1111 28 10.9333L40 3.46662L75.4667 25.3333L40 47.2L20.8 35.4666L37.0667 25.8666C37.9556 26.5777 38.9778 26.9333 40.1333 26.9333C41.2889 26.9333 42.3556 26.4444 43.3333 25.4666C44.3111 24.4888 44.8 23.3777 44.8 22.1333C44.8 20.8888 44.3111 19.8222 43.3333 18.9333C42.3556 18.0444 41.2444 17.6 40 17.6C38.7556 17.6 37.6444 18.0444 36.6667 18.9333C35.6889 19.8222 35.2 20.8888 35.2 22.1333L35.4667 23.2L17.8667 33.6L4.53333 25.3333L16.8 17.6C17.1556 17.4222 17.3778 17.1111 17.4667 16.6666C17.5556 16.2222 17.5111 15.8222 17.3333 15.4666C17.1556 15.1111 16.8444 14.8888 16.4 14.8C15.9556 14.7111 15.5556 14.7555 15.2 14.9333L0.8 24C0.266667 24.3555 0 24.8 0 25.3333C0 25.8666 0.266667 26.3111 0.8 26.6666L14.9333 35.2L13.0667 36.2666C11.6444 37.1555 10.5333 38.3111 9.73333 39.7333C8.93333 41.1555 8.53333 42.6666 8.53333 44.2666V46.9333C7.64444 47.2888 6.88889 47.8222 6.26667 48.5333C5.64444 49.2444 5.33333 50.1333 5.33333 51.2V53.8666C4.08889 55.1111 3.46667 56.7111 3.46667 58.6666V73.0666C3.46667 73.6 3.6 74 3.86667 74.2666C4.13333 74.5333 4.53333 74.6666 5.06667 74.6666H14.9333C15.4667 74.6666 15.8667 74.5333 16.1333 74.2666C16.4 74 16.5333 73.6 16.5333 73.0666V58.6666C16.5333 56.7111 15.9111 55.1111 14.6667 53.8666V51.2C14.6667 50.1333 14.3556 49.2444 13.7333 48.5333C13.1111 47.8222 12.3556 47.2888 11.4667 46.9333V44.2666C11.4667 43.2 11.7333 42.2222 12.2667 41.3333C12.8 40.4444 13.6 39.7333 14.6667 39.2L16.5333 37.8666V53.0666C16.5333 53.4222 16.7111 53.7777 17.0667 54.1333C17.4222 54.4888 17.7778 54.6666 18.1333 54.6666C22.0444 54.6666 25.7778 55.4222 29.3333 56.9333C32.8889 58.4444 36.0889 60.6222 38.9333 63.4666C39.2889 63.6444 39.6444 63.7333 40 63.7333C40.3556 63.7333 40.7111 63.6444 41.0667 63.4666C43.9111 60.6222 47.1111 58.4444 50.6667 56.9333C54.2222 55.4222 57.9556 54.6666 61.8667 54.6666C62.2222 54.6666 62.5778 54.4888 62.9333 54.1333C63.2889 53.7777 63.4667 53.4222 63.4667 53.0666V50.4C63.4667 49.8666 63.2889 49.4666 62.9333 49.2C62.5778 48.9333 62.2222 48.8 61.8667 48.8C61.5111 48.8 61.1556 48.9333 60.8 49.2C60.4444 49.4666 60.2667 49.8666 60.2667 50.4V51.4666C53.3333 51.8222 47.1111 54.2222 41.6 58.6666V55.4666C41.6 55.1111 41.4222 54.7555 41.0667 54.4C40.7111 54.0444 40.3556 53.8666 40 53.8666C39.6444 53.8666 39.2889 54.0444 38.9333 54.4C38.5778 54.7555 38.4 55.1111 38.4 55.4666V58.6666C32.8889 54.2222 26.6667 51.8222 19.7333 51.4666V38.4L39.2 50.4C39.3778 50.5777 39.6444 50.6666 40 50.6666C40.3556 50.6666 40.6222 50.5777 40.8 50.4L60.2667 38.4V40C60.2667 40.5333 60.4444 40.9333 60.8 41.2C61.1556 41.4666 61.5111 41.6 61.8667 41.6C62.2222 41.6 62.5778 41.4666 62.9333 41.2C63.2889 40.9333 63.4667 40.5333 63.4667 40V36.5333L79.2 26.6666C79.7333 26.3111 80 25.8666 80 25.3333C80 24.8 79.7333 24.3555 79.2 24ZM40 20.5333C40.3556 20.5333 40.7111 20.7111 41.0667 21.0666C41.4222 21.4222 41.6 21.8222 41.6 22.2666C41.6 22.7111 41.4222 23.0666 41.0667 23.3333C40.7111 23.6 40.3556 23.7333 40 23.7333C39.6444 23.7333 39.2889 23.6 38.9333 23.3333C38.5778 23.0666 38.4 22.7111 38.4 22.2666C38.4 21.8222 38.5778 21.4222 38.9333 21.0666C39.2889 20.7111 39.6444 20.5333 40 20.5333ZM8.53333 51.2C8.53333 50.8444 8.66667 50.4888 8.93333 50.1333C9.2 49.7777 9.55556 49.6 10 49.6C10.4444 49.6 10.8 49.7777 11.0667 50.1333C11.3333 50.4888 11.4667 50.8444 11.4667 51.2V52H8.53333V51.2ZM13.3333 58.6666V71.4666H6.66667V58.6666C6.66667 57.6 6.97778 56.7555 7.6 56.1333C8.22222 55.5111 9.02222 55.2 10 55.2C10.9778 55.2 11.7778 55.5111 12.4 56.1333C13.0222 56.7555 13.3333 57.6 13.3333 58.6666ZM62.9333 43.7333C62.5778 43.3777 62.2222 43.2 61.8667 43.2C61.5111 43.2 61.1556 43.3777 60.8 43.7333C60.4444 44.0888 60.2667 44.4888 60.2667 44.9333C60.2667 45.3777 60.4444 45.7333 60.8 46C61.1556 46.2666 61.5111 46.4 61.8667 46.4C62.2222 46.4 62.5778 46.2666 62.9333 46C63.2889 45.7333 63.4667 45.3777 63.4667 44.9333C63.4667 44.4888 63.2889 44.0888 62.9333 43.7333Z" fill="white"/>
</svg>
