<svg width="80" height="72" viewBox="0 0 80 72" fill="none" xmlns="http://www.w3.org/2000/svg">
<path d="M78.4 57.0667H76.8V17.8667C76.8 15.5556 76.0444 13.6445 74.5333 12.1333C73.0222 10.6222 71.2 9.86667 69.0667 9.86667H64.2667V6.13334C64.2667 4.35556 63.6889 2.88889 62.5333 1.73334C61.3778 0.577782 60 7.62939e-06 58.4 7.62939e-06H38.6667C36.8889 7.62939e-06 35.4222 0.577782 34.2667 1.73334C33.1111 2.88889 32.5333 4.35556 32.5333 6.13334V9.86667H10.9333C8.8 9.86667 6.97778 10.6222 5.46667 12.1333C3.95556 13.6445 3.2 15.5556 3.2 17.8667V57.0667H1.6C1.06667 57.0667 0.666667 57.2445 0.4 57.6C0.133333 57.9556 0 58.3111 0 58.6667C0 62.2222 1.24444 65.2445 3.73333 67.7333C6.22222 70.2222 9.24444 71.4667 12.8 71.4667H33.0667C33.4222 71.4667 33.7333 71.3333 34 71.0667C34.2667 70.8 34.4 70.4445 34.4 70C34.4 69.5556 34.2667 69.1556 34 68.8C33.7333 68.4445 33.4222 68.2667 33.0667 68.2667H12.8C10.4889 68.2667 8.4 67.5111 6.53333 66C4.66667 64.4889 3.55556 62.5778 3.2 60.2667H76.8C76.4445 62.5778 75.3333 64.4889 73.4667 66C71.6 67.5111 69.5111 68.2667 67.2 68.2667H46.9333C46.5778 68.2667 46.2667 68.4445 46 68.8C45.7333 69.1556 45.6 69.5556 45.6 70C45.6 70.4445 45.7333 70.8 46 71.0667C46.2667 71.3333 46.5778 71.4667 46.9333 71.4667H67.2C70.7556 71.4667 73.7778 70.2222 76.2667 67.7333C78.7556 65.2445 80 62.2222 80 58.6667C80 58.3111 79.8667 57.9556 79.6 57.6C79.3333 57.2445 78.9333 57.0667 78.4 57.0667ZM35.7333 6.13334C35.7333 5.24445 36 4.53334 36.5333 4.00001C37.0667 3.46667 37.7778 3.2 38.6667 3.2H58.4C59.1111 3.2 59.7778 3.46667 60.4 4.00001C61.0222 4.53334 61.3333 5.24445 61.3333 6.13334V20.5333C61.3333 21.2444 61.0222 21.9111 60.4 22.5333C59.7778 23.1556 59.1111 23.4667 58.4 23.4667H43.7333C43.2 23.4667 42.8444 23.5556 42.6667 23.7333L40 26.1333V24.8C40 24.4445 39.8667 24.1333 39.6 23.8667C39.3333 23.6 38.8889 23.4667 38.2667 23.4667C37.6444 23.4667 37.0667 23.1556 36.5333 22.5333C36 21.9111 35.7333 21.2444 35.7333 20.5333V6.13334ZM6.13333 17.8667C6.13333 16.4445 6.62222 15.2889 7.6 14.4C8.57778 13.5111 9.68889 13.0667 10.9333 13.0667H32.5333V16.2667H10.9333C10.5778 16.2667 10.2222 16.4 9.86667 16.6667C9.51111 16.9333 9.33333 17.3333 9.33333 17.8667V57.0667H6.13333V17.8667ZM18.9333 57.0667V56.2667C18.9333 53.9556 19.7333 51.9556 21.3333 50.2667C22.9333 48.5778 24.8889 47.7333 27.2 47.7333H28V50.6667C28 51.2 28.1333 51.6 28.4 51.8667C28.6667 52.1333 29.0222 52.2667 29.4667 52.2667C29.9111 52.2667 30.2667 52.1333 30.5333 51.8667C30.8 51.6 30.9333 51.2 30.9333 50.6667V47.7333H31.7333C34.0444 47.7333 36 48.5778 37.6 50.2667C39.2 51.9556 40 53.9556 40 56.2667V57.0667H18.9333ZM33.6 40.5333C33.6 41.6 33.2 42.5333 32.4 43.3333C31.6 44.1333 30.6222 44.5333 29.4667 44.5333C28.3111 44.5333 27.3333 44.1333 26.5333 43.3333C25.7333 42.5333 25.3333 41.6 25.3333 40.5333V39.4667C25.3333 38.4 25.7333 37.4667 26.5333 36.6667C27.3333 35.8667 28.3111 35.4667 29.4667 35.4667C30.6222 35.4667 31.6 35.8667 32.4 36.6667C33.2 37.4667 33.6 38.4 33.6 39.4667V40.5333ZM43.2 57.0667V56.2667C43.2 53.6 42.4444 51.2445 40.9333 49.2C39.4222 47.1556 37.4222 45.7778 34.9333 45.0667C36 43.8222 36.5333 42.3111 36.5333 40.5333V39.4667C36.5333 37.5111 35.8667 35.8222 34.5333 34.4C33.2 32.9778 31.5111 32.2667 29.4667 32.2667C27.4222 32.2667 25.7333 32.9778 24.4 34.4C23.0667 35.8222 22.4 37.5111 22.4 39.4667V40.5333C22.4 42.3111 22.9333 43.8222 24 45.0667C21.5111 45.7778 19.5111 47.1556 18 49.2C16.4889 51.2445 15.7333 53.6 15.7333 56.2667V57.0667H12.5333V19.2H32.5333V20.5333C32.5333 21.7778 32.9333 22.9778 33.7333 24.1333C34.5333 25.2889 35.6444 26.0444 37.0667 26.4V30.1333C37.0667 30.6667 37.3333 31.1111 37.8667 31.4667H38.6667C39.0222 31.4667 39.3778 31.3778 39.7333 31.2L44.2667 26.4H58.4C60 26.4 61.3778 25.8222 62.5333 24.6667C63.6889 23.5111 64.2667 22.1333 64.2667 20.5333V19.2H67.4667V57.0667H43.2ZM70.6667 57.0667V17.8667C70.6667 17.3333 70.4889 16.9333 70.1333 16.6667C69.7778 16.4 69.4222 16.2667 69.0667 16.2667H64.2667V13.0667H69.0667C70.3111 13.0667 71.4222 13.5111 72.4 14.4C73.3778 15.2889 73.8667 16.4445 73.8667 17.8667V57.0667H70.6667ZM43.4667 62.6667H36.5333C36.1778 62.6667 35.8222 62.8445 35.4667 63.2C35.1111 63.5556 34.9333 63.9556 34.9333 64.4C34.9333 64.8445 35.1111 65.2 35.4667 65.4667C35.8222 65.7333 36.1778 65.8667 36.5333 65.8667H43.4667C44 65.8667 44.4 65.7333 44.6667 65.4667C44.9333 65.2 45.0667 64.8445 45.0667 64.4C45.0667 63.9556 44.9333 63.5556 44.6667 63.2C44.4 62.8445 44 62.6667 43.4667 62.6667ZM44.8 19.2C45.3333 19.5556 45.8667 19.7333 46.4 19.7333C46.9333 19.7333 47.3778 19.5556 47.7333 19.2L53.6 15.7333C54.6667 15.2 55.2 14.3556 55.2 13.2C55.2 12.0444 54.6667 11.2 53.6 10.6667L47.7333 7.2C46.8444 6.66667 45.8667 6.66667 44.8 7.2C43.7333 7.73334 43.2 8.62223 43.2 9.86667V16.5333C43.2 17.7778 43.7333 18.6667 44.8 19.2ZM46.4 10.1333L52 13.3333L46.4 16.2667V10.1333ZM40 68.2667C39.6444 68.2667 39.2889 68.4445 38.9333 68.8C38.5778 69.1556 38.4 69.5556 38.4 70C38.4 70.4445 38.5778 70.8 38.9333 71.0667C39.2889 71.3333 39.6444 71.4667 40 71.4667C40.3556 71.4667 40.7111 71.3333 41.0667 71.0667C41.4222 70.8 41.6 70.4445 41.6 70C41.6 69.5556 41.4222 69.1556 41.0667 68.8C40.7111 68.4445 40.3556 68.2667 40 68.2667Z" fill="white"/>
</svg>
