<svg width="17" height="17" viewBox="0 0 17 17" fill="none" xmlns="http://www.w3.org/2000/svg">
<path d="M16.4276 15.2943L14.0943 12.8943C14.9831 11.8277 15.5387 10.6277 15.7609 9.29434C15.9831 7.961 15.872 6.64989 15.4276 5.361C14.9831 4.07211 14.2498 2.961 13.2276 2.02767C12.2054 1.09434 11.0276 0.483225 9.69425 0.194336C8.36092 -0.094553 7.0387 -0.0612202 5.72759 0.294334C4.41648 0.649891 3.27203 1.31656 2.29425 2.29434C1.31648 3.27211 0.649808 4.41656 0.294253 5.72767C-0.0613027 7.03878 -0.094636 8.361 0.194253 9.69434C0.483142 11.0277 1.09425 12.2054 2.02759 13.2277C2.96092 14.2499 4.07203 14.9832 5.36092 15.4277C6.64981 15.8721 7.96092 15.9832 9.29425 15.761C10.6276 15.5388 11.8276 14.9832 12.8943 14.0943L15.2943 16.4277C15.4276 16.6054 15.6165 16.6943 15.8609 16.6943C16.1054 16.6943 16.3054 16.6166 16.4609 16.461C16.6165 16.3054 16.6943 16.1054 16.6943 15.861C16.6943 15.6166 16.6054 15.4277 16.4276 15.2943ZM1.69425 7.961C1.69425 6.80545 1.97203 5.74989 2.52759 4.79434C3.08314 3.83878 3.8387 3.08322 4.79425 2.52767C5.74981 1.97211 6.79425 1.69433 7.92759 1.69433C9.06092 1.69433 10.1054 1.97211 11.0609 2.52767C12.0165 3.08322 12.7831 3.83878 13.3609 4.79434C13.9387 5.74989 14.2276 6.79434 14.2276 7.92767C14.2276 9.061 13.9387 10.1054 13.3609 11.061C12.7831 12.0166 12.0165 12.7721 11.0609 13.3277C10.1054 13.8832 9.06092 14.161 7.92759 14.161C6.79425 14.161 5.74981 13.8832 4.79425 13.3277C3.8387 12.7721 3.08314 12.0166 2.52759 11.061C1.97203 10.1054 1.69425 9.07211 1.69425 7.961Z" fill="white"/>
</svg>
