<svg width="24" height="24" viewBox="0 0 24 24" fill="none" xmlns="http://www.w3.org/2000/svg">
<path d="M12 0C10.3438 0 8.78906 0.3125 7.33594 0.9375C5.88281 1.57812 4.61328 2.44141 3.52734 3.52734C2.44141 4.61328 1.57812 5.88281 0.9375 7.33594C0.3125 8.78906 0 10.3438 0 12C0 13.6562 0.3125 15.2109 0.9375 16.6641C1.57812 18.1172 2.44141 19.3867 3.52734 20.4727C4.61328 21.5586 5.88281 22.4219 7.33594 23.0625C8.78906 23.6875 10.3438 24 12 24C13.6562 24 15.2109 23.6875 16.6641 23.0625C18.1172 22.4219 19.3867 21.5586 20.4727 20.4727C21.5586 19.3867 22.4219 18.1172 23.0625 16.6641C23.6875 15.2109 24 13.6562 24 12C24 10.3438 23.6875 8.78906 23.0625 7.33594C22.4219 5.88281 21.5586 4.61328 20.4727 3.52734C19.3867 2.44141 18.1172 1.57812 16.6641 0.9375C15.2109 0.3125 13.6562 0 12 0ZM12 22.1016C10.6094 22.1016 9.29688 21.8359 8.0625 21.3047C6.84375 20.7734 5.77734 20.0508 4.86328 19.1367C3.94922 18.2227 3.22656 17.1562 2.69531 15.9375C2.16406 14.7031 1.89844 13.3906 1.89844 12C1.89844 10.6094 2.16406 9.29688 2.69531 8.0625C3.22656 6.84375 3.94922 5.77734 4.86328 4.86328C5.77734 3.94922 6.84375 3.22656 8.0625 2.69531C9.29688 2.16406 10.6094 1.89844 12 1.89844C13.3906 1.89844 14.7031 2.16406 15.9375 2.69531C17.1562 3.22656 18.2227 3.94922 19.1367 4.86328C20.0508 5.77734 20.7734 6.84375 21.3047 8.0625C21.8359 9.29688 22.1016 10.6094 22.1016 12C22.1016 13.3906 21.8359 14.7031 21.3047 15.9375C20.7734 17.1562 20.0508 18.2227 19.1367 19.1367C18.2227 20.0508 17.1562 20.7734 15.9375 21.3047C14.7031 21.8359 13.3906 22.1016 12 22.1016ZM12 14.1328C11.1562 14.1328 10.3281 14.2344 9.51562 14.4375C8.70312 14.6562 7.92188 14.9648 7.17188 15.3633C6.42188 15.7617 5.70312 16.2578 5.01562 16.8516C4.32812 17.4453 3.69531 18.125 3.11719 18.8906L4.61719 20.0391C5.11719 19.3984 5.64844 18.8281 6.21094 18.3281C6.78906 17.8281 7.39062 17.4062 8.01562 17.0625C8.64062 16.7188 9.28906 16.4609 9.96094 16.2891C10.6328 16.1172 11.3125 16.0312 12 16.0312C12.6875 16.0312 13.3672 16.1172 14.0391 16.2891C14.7109 16.4609 15.3594 16.7188 15.9844 17.0625C16.6094 17.4062 17.2109 17.8281 17.7891 18.3281C18.3516 18.8281 18.8828 19.3984 19.3828 20.0391L20.8828 18.8906C20.3047 18.125 19.6719 17.4453 18.9844 16.8516C18.2969 16.2578 17.5781 15.7617 16.8281 15.3633C16.0781 14.9648 15.2969 14.6562 14.4844 14.4375C13.6719 14.2344 12.8438 14.1328 12 14.1328ZM12 4.3125C11.3125 4.3125 10.6719 4.4375 10.0781 4.6875C9.48438 4.95312 8.96094 5.3125 8.50781 5.76562C8.05469 6.21875 7.70312 6.74219 7.45312 7.33594C7.1875 7.94531 7.05469 8.59375 7.05469 9.28125C7.05469 9.96875 7.1875 10.6094 7.45312 11.2031C7.70312 11.8125 8.05469 12.3438 8.50781 12.7969C8.96094 13.25 9.48438 13.6016 10.0781 13.8516C10.6719 14.1172 11.3125 14.25 12 14.25C12.6875 14.25 13.3281 14.1172 13.9219 13.8516C14.5156 13.6016 15.0391 13.25 15.4922 12.7969C15.9453 12.3438 16.2969 11.8125 16.5469 11.2031C16.8125 10.6094 16.9453 9.96875 16.9453 9.28125C16.9453 8.59375 16.8125 7.94531 16.5469 7.33594C16.2969 6.74219 15.9453 6.21875 15.4922 5.76562C15.0391 5.3125 14.5156 4.95312 13.9219 4.6875C13.3281 4.4375 12.6875 4.3125 12 4.3125ZM12 12.3516C11.1562 12.3516 10.4375 12.0508 9.84375 11.4492C9.25 10.8477 8.95312 10.125 8.95312 9.28125C8.95312 8.4375 9.25 7.71484 9.84375 7.11328C10.4375 6.51172 11.1562 6.21094 12 6.21094C12.8438 6.21094 13.5625 6.51172 14.1562 7.11328C14.75 7.71484 15.0469 8.4375 15.0469 9.28125C15.0469 10.125 14.75 10.8477 14.1562 11.4492C13.5625 12.0508 12.8438 12.3516 12 12.3516Z" fill="#1B2336"/>
</svg>
